<svg xmlns="http://www.w3.org/2000/svg" viewBox="0 0 512.853 512.853"><path d="M505.173 214.613l-74.24-81.92c-5.973-5.973-13.653-9.387-21.333-9.387h-78.507c-13.653 0-23.893 11.093-23.893 23.893v181.76h-41.326l31.695-221.867h77.897c5.12 0 8.533-3.413 8.533-8.533s-3.413-8.533-8.533-8.533h-81.493l-40.533-48.64c-.853-.853-3.413-2.56-5.12-2.56l-59.733-8.533c-2.56 0-5.12.853-6.827 2.56L157.013 57.6l-22.187 14.507-47.787-7.68c-4.267-.853-8.533 1.707-9.387 5.12l-23.68 63.147H42.667c-3.413 0-6.827 1.707-8.533 5.12L0 223.147v5.12L25.6 339.2v71.68c0 11.093 9.387 20.48 20.48 20.48h5.723c4.075 29.155 28.753 51.2 59.131 51.2s55.056-22.045 59.131-51.2H350.47c4.075 29.155 28.753 51.2 59.131 51.2s55.056-22.045 59.131-51.2h22.789c11.093 0 20.48-9.387 21.333-20.48V234.24c-.001-7.68-2.561-14.507-7.681-19.627zm-10.24 19.627v26.453h-128V175.36h77.653l46.933 51.2c.64.427 1.173.96 1.613 1.56.22.3.417.617.592.945.876 1.642 1.209 3.575 1.209 5.175zM90.453 82.347l44.373 7.68c2.56 0 4.267 0 6.827-2.56l25.6-17.067c.853 0 1.707-.853 1.707-.853l22.187-22.187 52.053 7.68 29.013 34.987h-33.28c-.426 0-.851.027-1.272.08l-.013.002a9.64 9.64 0 00-1.164.222c-.073.018-.145.04-.218.06-.249.07-.493.151-.733.241-2.126.765-4.005 2.259-5.133 4.515l-12.8 32.427c-1.707 3.413-4.267 5.12-7.68 5.12H71.68l18.773-50.347zM24.89 260.663c.234.015.468.03.71.03h128c5.12 0 8.533-3.413 8.533-8.533s-3.413-8.533-8.533-8.533h-128c-1.699 0-3.205.383-4.466 1.073l-4.067-17.286 3.817-9.387h90.05c5.12 0 8.533-3.413 8.533-8.533s-3.413-8.533-8.533-8.533H27.822l20.818-51.2h162.133c10.24 0 19.627-5.973 23.04-15.36l11.093-27.307h34.987L248.32 328.96H40.96l-16.07-68.297zm86.043 204.83c-23.893 0-42.667-18.773-42.667-42.667 0-23.893 18.773-42.667 42.667-42.667 23.893 0 42.667 18.773 42.667 42.667 0 23.894-18.773 42.667-42.667 42.667zm298.667 0c-23.893 0-42.667-18.773-42.667-42.667 0-23.893 18.773-42.667 42.667-42.667 23.893 0 42.667 18.773 42.667 42.667 0 23.894-18.774 42.667-42.667 42.667zm81.92-51.2h-22.789c-4.075-29.155-28.753-51.2-59.131-51.2-.138 0-.274.009-.412.01-.148-.001-.294-.01-.441-.01-29.867 0-54.613 22.187-58.88 51.2H170.064c-3.821-27.339-25.761-48.416-53.528-50.936-.203-.019-.409-.029-.613-.046-.699-.056-1.397-.114-2.103-.147-.957-.046-1.919-.072-2.887-.072s-1.93.026-2.887.072c-.706.033-1.404.09-2.103.147-.204.017-.41.027-.613.046-27.767 2.52-49.707 23.597-53.528 50.936H46.08c-1.707 0-3.413-1.707-3.413-3.413v-64.853h281.6V148.053c0-4.267 3.413-6.827 6.827-6.827H409.6c3.413 0 5.973.853 8.533 3.413l12.231 13.653h-65.991c-7.68 0-14.507 6.827-14.507 14.507v90.453c0 7.68 6.827 14.507 14.507 14.507h130.56v42.667h-42.667c-5.12 0-8.533 3.413-8.533 8.533s3.413 8.533 8.533 8.533h42.667v73.387c0 1.708-1.706 3.414-3.413 3.414z"/><path d="M110.933 405.76c-9.387 0-17.067 7.68-17.067 17.067s7.68 17.067 17.067 17.067S128 432.213 128 422.827s-7.68-17.067-17.067-17.067zm298.667 0c-9.387 0-17.067 7.68-17.067 17.067s7.68 17.067 17.067 17.067 17.067-7.68 17.067-17.067-7.68-17.067-17.067-17.067z"/></svg>