<svg xmlns="http://www.w3.org/2000/svg" viewBox="0 0 512 512"><path d="M112 356a8 8 0 00-8 8c0 4.411-3.589 8-8 8s-8-3.589-8-8 3.589-8 8-8a8 8 0 000-16c-13.234 0-24 10.767-24 24s10.766 24 24 24 24-10.767 24-24a8 8 0 00-8-8zm320 0a8 8 0 00-8 8c0 4.411-3.589 8-8 8s-8-3.589-8-8 3.589-8 8-8a8 8 0 000-16c-13.234 0-24 10.767-24 24s10.766 24 24 24 24-10.767 24-24a8 8 0 00-8-8z"/><path d="M512 252a7.973 7.973 0 00-2.388-5.698c-3.421-9.455-10.352-17.394-19.723-22.08a7.901 7.901 0 00-.767-.334l-26.439-9.925-16.106-61.195a6.038 6.038 0 00-.074-.263C441.389 135.456 425.992 124 408.191 124H352v-16c0-8.822-7.178-16-16-16H16c-8.822 0-16 7.178-16 16v224c0 8.822 7.178 16 16 16h26.341a55.523 55.523 0 00-1.761 8H8a8 8 0 000 16h32.581c3.895 27.102 27.258 48 55.419 48s51.525-20.898 55.419-48H168c0 13.233 10.766 24 24 24h48c13.234 0 24-10.767 24-24h96.581c3.895 27.102 27.258 48 55.419 48s51.525-20.898 55.419-48H504a8 8 0 000-16h-32.581a55.523 55.523 0 00-1.761-8H496c8.822 0 16-7.178 16-16v-72c0-1.88-.131-3.735-.383-5.558A7.98 7.98 0 00512 252zm-16 48h-8v-8h8v8zm-6.101-56H352v-16h102.549l28.531 10.71a24.07 24.07 0 016.819 5.29zm-81.708-104c10.638 0 19.846 6.819 22.951 16.982L445.622 212H352v-72h56.191zM48.001 332H16v-40h248.004a8 8 0 000-16H16V108h320v224H144.002c-.661 0-1.3.089-1.915.24C131.975 317.61 115.092 308 96 308c-19.092 0-35.974 9.61-46.087 24.24a7.986 7.986 0 00-1.912-.24zM96 404c-22.056 0-40-17.944-40-40s17.944-40 40-40 40 17.944 40 40-17.944 40-40 40zm55.419-48a55.523 55.523 0 00-1.761-8h19.718a23.89 23.89 0 00-1.376 8h-16.581zM248 372c0 4.411-3.589 8-8 8h-48c-4.411 0-8-3.589-8-8v-7.981l.001-.019-.001-.019V356c0-4.411 3.589-8 8-8h48c4.411 0 8 3.589 8 8v16zm14.624-24h99.717a55.523 55.523 0 00-1.761 8H264a23.89 23.89 0 00-1.376-8zM416 404c-22.056 0-40-17.944-40-40s17.944-40 40-40 40 17.944 40 40-17.944 40-40 40zm48-72c-.66 0-1.299.089-1.913.24C451.974 317.61 435.092 308 416 308s-35.974 9.61-46.087 24.24a7.986 7.986 0 00-1.912-.24h-16v-72h144v16h-8c-8.822 0-16 7.178-16 16v8c0 8.822 7.178 16 16 16h8v16H464z"/><path d="M200 356c-2.11 0-4.17.859-5.66 2.34A8.068 8.068 0 00192 364c0 2.109.85 4.17 2.34 5.66A8.055 8.055 0 00200 372c2.11 0 4.17-.851 5.66-2.34A8.07 8.07 0 00208 364c0-2.101-.85-4.17-2.34-5.66A8.089 8.089 0 00200 356zm96.004-64H312a8 8 0 000-16h-15.996a8 8 0 000 16z"/></svg>