<?xml version="1.0" encoding="utf-8"?><svg xmlns="http://www.w3.org/2000/svg" xmlns:xlink="http://www.w3.org/1999/xlink"><symbol viewBox="0 0 512 512" id="appointment" xmlns="http://www.w3.org/2000/svg"><path d="M462 44h-47.667V30c0-16.542-13.458-30-30-30s-30 13.458-30 30v14h-168V30c0-16.542-13.458-30-30-30s-30 13.458-30 30v14.37a9.979 9.979 0 0 0-2.666-.37H83.823c-27.57 0-50 22.43-50 50v170.333c0 5.523 4.478 10 10 10s10-4.477 10-10V147h360.51c5.522 0 10-4.477 10-10s-4.478-10-10-10H53.823V94c0-16.542 13.458-30 30-30h39.844c.925 0 1.816-.136 2.666-.37V76.5c0 16.542 13.458 30 30 30s30-13.458 30-30V64h168v12.5c0 16.542 13.458 30 30 30s30-13.458 30-30V64H462c16.542 0 30 13.458 30 30v379.994c0 9.928-8.077 18.006-18.006 18.006s-18.006-8.078-18.006-18.006v-25.869c0-5.523-4.478-10-10-10H329.667c-5.522 0-10 4.477-10 10s4.478 10 10 10h106.321v15.869A37.775 37.775 0 0 0 440.533 492H38c-9.925 0-18-8.075-18-18v-15.875h223.825c5.522 0 10-4.477 10-10s-4.478-10-10-10h-99.916c17.474-15.049 28.57-37.309 28.57-62.125 0-45.215-36.785-82-82-82s-82 36.785-82 82c0 24.816 11.096 47.076 28.57 62.125H10c-5.522 0-10 4.477-10 10V474c0 20.953 17.047 38 38 38h435.994C494.95 512 512 494.951 512 473.994V94c0-27.57-22.43-50-50-50zM166.333 76.5c0 5.514-4.486 10-10 10s-10-4.486-10-10V30c0-5.514 4.486-10 10-10s10 4.486 10 10v46.5zm228 0c0 5.514-4.486 10-10 10s-10-4.486-10-10V30c0-5.514 4.486-10 10-10s10 4.486 10 10v46.5zM28.479 376c0-34.187 27.813-62 62-62s62 27.813 62 62-27.813 62-62 62-62-27.813-62-62z"/><path d="M468.309 129.93a10.072 10.072 0 0 0-7.069-2.93c-2.631 0-5.21 1.07-7.07 2.93-1.86 1.86-2.93 4.44-2.93 7.07s1.069 5.21 2.93 7.07a10.076 10.076 0 0 0 7.07 2.93c2.63 0 5.21-1.07 7.069-2.93 1.86-1.86 2.931-4.44 2.931-7.07s-1.07-5.21-2.931-7.07zm-169.66 311.12c-1.859-1.86-4.439-2.92-7.069-2.92s-5.21 1.06-7.07 2.92a10.093 10.093 0 0 0-2.93 7.07c0 2.64 1.069 5.21 2.93 7.08 1.86 1.86 4.44 2.92 7.07 2.92s5.21-1.06 7.069-2.92a10.118 10.118 0 0 0 2.931-7.08c0-2.63-1.07-5.2-2.931-7.07zM226.245 304c-20.953 0-38 17.047-38 38s17.047 38 38 38 38-17.047 38-38-17.047-38-38-38zm0 56c-9.925 0-18-8.075-18-18s8.075-18 18-18 18 8.075 18 18-8.075 18-18 18zm93.333-56c-20.953 0-38 17.047-38 38s17.047 38 38 38 38-17.047 38-38-17.047-38-38-38zm0 56c-9.925 0-18-8.075-18-18s8.075-18 18-18 18 8.075 18 18-8.075 18-18 18zm93.334-56c-20.953 0-38 17.047-38 38s17.047 38 38 38 38-17.047 38-38-17.047-38-38-38zm0 56c-9.925 0-18-8.075-18-18s8.075-18 18-18 18 8.075 18 18-8.075 18-18 18zm-280-160c-20.953 0-38 17.047-38 38s17.047 38 38 38 38-17.047 38-38-17.047-38-38-38zm0 56c-9.925 0-18-8.075-18-18s8.075-18 18-18 18 8.075 18 18-8.075 18-18 18zm186.666-56c-20.953 0-38 17.047-38 38s17.047 38 38 38 38-17.047 38-38-17.047-38-38-38zm0 56c-9.925 0-18-8.075-18-18s8.075-18 18-18 18 8.075 18 18-8.075 18-18 18zm93.334-56c-20.953 0-38 17.047-38 38s17.047 38 38 38 38-17.047 38-38-17.047-38-38-38zm0 56c-9.925 0-18-8.075-18-18s8.075-18 18-18 18 8.075 18 18-8.075 18-18 18zm-186.667-56c-20.953 0-38 17.047-38 38s17.047 38 38 38 38-17.047 38-38-17.047-38-38-38zm0 56c-9.925 0-18-8.075-18-18s8.075-18 18-18 18 8.075 18 18-8.075 18-18 18zm-100.141 95.629c-3.906-3.905-10.236-3.905-14.143 0l-32.566 32.567-11.129-11.129c-3.906-3.905-10.236-3.905-14.143 0-3.905 3.905-3.905 10.237 0 14.143l18.201 18.199a10.003 10.003 0 0 0 14.142 0l39.638-39.638c3.905-3.905 3.905-10.237 0-14.142z"/></symbol><symbol viewBox="0 0 512 512" id="bars-code" xmlns="http://www.w3.org/2000/svg"><path d="M367.64 398.93c-1.86-1.86-4.44-2.93-7.07-2.93s-5.21 1.07-7.07 2.93c-1.86 1.86-2.93 4.44-2.93 7.07s1.07 5.21 2.93 7.07c1.86 1.86 4.44 2.93 7.07 2.93s5.21-1.07 7.07-2.93 2.93-4.44 2.93-7.07-1.07-5.21-2.93-7.07zM64.012 0H10C4.477 0 0 4.477 0 10v54.012c0 5.523 4.477 10 10 10s10-4.477 10-10V20h44.012c5.523 0 10-4.477 10-10s-4.477-10-10-10zM502 0h-54.012c-5.523 0-10 4.477-10 10s4.477 10 10 10H492v44.012c0 5.523 4.477 10 10 10s10-4.477 10-10V10c0-5.523-4.477-10-10-10zm0 437.988c-5.523 0-10 4.477-10 10V492h-44.012c-5.523 0-10 4.477-10 10s4.477 10 10 10H502c5.523 0 10-4.477 10-10v-54.012c0-5.523-4.477-10-10-10zM64.012 492H20v-44.012c0-5.523-4.477-10-10-10s-10 4.477-10 10V502c0 5.523 4.477 10 10 10h54.012c5.523 0 10-4.477 10-10s-4.477-10-10-10z"/><path d="M502 222h-44V106c0-5.523-4.477-10-10-10h-48c-5.523 0-10 4.477-10 10v116h-19.431V106c0-5.523-4.477-10-10-10s-10 4.477-10 10v116h-20V106c0-5.523-4.477-10-10-10s-10 4.477-10 10v116H289.89V106c0-5.523-4.477-10-10-10h-38c-5.523 0-10 4.477-10 10v116h-20V106c0-5.523-4.477-10-10-10s-10 4.477-10 10v116H170V106c0-5.523-4.477-10-10-10h-48c-5.523 0-10 4.477-10 10v116H74v-82.333c0-5.523-4.477-10-10-10s-10 4.477-10 10V222H10c-5.523 0-10 4.477-10 10v48c0 5.523 4.477 10 10 10h44v116c0 5.523 4.477 10 10 10s10-4.477 10-10V290h28v116c0 5.523 4.477 10 10 10h48c5.523 0 10-4.477 10-10V290h21.89v116c0 5.523 4.477 10 10 10s10-4.477 10-10V290h20v116c0 5.523 4.477 10 10 10h38c5.523 0 10-4.477 10-10V290h20.679v116c0 5.523 4.477 10 10 10s10-4.477 10-10V290h20v80.5c0 5.523 4.477 10 10 10s10-4.477 10-10V290H390v116c0 5.523 4.477 10 10 10h48c5.523 0 10-4.477 10-10V290h44c5.523 0 10-4.477 10-10v-48c0-5.523-4.477-10-10-10zm-92-106h28v106h-28V116zm-158.11 0h18v106h-18V116zM122 116h28v106h-28V116zm28 280h-28V290h28v106zm119.89 0h-18V290h18v106zM438 396h-28V290h28v106zm54-126H20v-28h472v28zM71.07 98.93C69.21 97.07 66.63 96 64 96s-5.21 1.07-7.07 2.93S54 103.37 54 106s1.07 5.21 2.93 7.07S61.37 116 64 116s5.21-1.07 7.07-2.93S74 108.63 74 106s-1.07-5.21-2.93-7.07z"/></symbol><symbol viewBox="0 0 488.152 488.152" id="calendar" xmlns="http://www.w3.org/2000/svg"><path d="M177.854 269.311c0-6.115-4.96-11.069-11.08-11.069h-38.665c-6.113 0-11.074 4.954-11.074 11.069v38.66c0 6.123 4.961 11.079 11.074 11.079h38.665c6.12 0 11.08-4.956 11.08-11.079v-38.66zm96.629 0c0-6.115-4.961-11.069-11.069-11.069h-38.67c-6.113 0-11.074 4.954-11.074 11.069v38.66c0 6.123 4.961 11.079 11.074 11.079h38.67c6.108 0 11.069-4.956 11.069-11.079v-38.66zm96.634 0c0-6.115-4.961-11.069-11.074-11.069h-38.665c-6.12 0-11.08 4.954-11.08 11.069v38.66c0 6.123 4.96 11.079 11.08 11.079h38.665c6.113 0 11.074-4.956 11.074-11.079v-38.66zM177.854 365.95c0-6.125-4.96-11.075-11.08-11.075h-38.665c-6.113 0-11.074 4.95-11.074 11.075v38.653c0 6.119 4.961 11.074 11.074 11.074h38.665c6.12 0 11.08-4.956 11.08-11.074V365.95zm96.629 0c0-6.125-4.961-11.075-11.069-11.075h-38.67c-6.113 0-11.074 4.95-11.074 11.075v38.653c0 6.119 4.961 11.074 11.074 11.074h38.67c6.108 0 11.069-4.956 11.069-11.074V365.95zm96.634 0c0-6.125-4.961-11.075-11.069-11.075h-38.67c-6.12 0-11.08 4.95-11.08 11.075v38.653c0 6.119 4.96 11.074 11.08 11.074h38.67c6.108 0 11.069-4.956 11.069-11.074V365.95z"/><path d="M440.254 54.354v59.05c0 26.69-21.652 48.198-48.338 48.198h-30.493c-26.688 0-48.627-21.508-48.627-48.198V54.142h-137.44v59.262c0 26.69-21.938 48.198-48.622 48.198H96.235c-26.685 0-48.336-21.508-48.336-48.198v-59.05c-23.323.703-42.488 20.002-42.488 43.723v346.061c0 24.167 19.588 44.015 43.755 44.015h389.82c24.131 0 43.755-19.889 43.755-44.015V98.077c0-23.721-19.164-43.02-42.487-43.723zm-14.163 368.234c0 10.444-8.468 18.917-18.916 18.917H80.144c-10.448 0-18.916-8.473-18.916-18.917V243.835c0-10.448 8.467-18.921 18.916-18.921h327.03c10.448 0 18.916 8.473 18.916 18.921l.001 178.753z"/><path d="M96.128 129.945h30.162c9.155 0 16.578-7.412 16.578-16.567V16.573C142.868 7.417 135.445 0 126.29 0H96.128C86.972 0 79.55 7.417 79.55 16.573v96.805c0 9.155 7.422 16.567 16.578 16.567zm264.907 0h30.162c9.149 0 16.572-7.412 16.572-16.567V16.573C407.77 7.417 400.347 0 391.197 0h-30.162c-9.154 0-16.577 7.417-16.577 16.573v96.805c0 9.155 7.423 16.567 16.577 16.567z"/></symbol><symbol viewBox="0 0 348.077 348.077" id="call-answer" xmlns="http://www.w3.org/2000/svg"><path d="M340.273 275.083l-53.755-53.761c-10.707-10.664-28.438-10.34-39.518.744l-27.082 27.076a792.327 792.327 0 0 1-5.344-2.973c-17.102-9.476-40.509-22.464-65.14-47.113-24.704-24.701-37.704-48.144-47.209-65.257-1.003-1.813-1.964-3.561-2.913-5.221l18.176-18.149 8.936-8.947c11.097-11.1 11.403-28.826.721-39.521L73.39 8.194c-10.682-10.68-28.421-10.356-39.518.744l-15.15 15.237.414.411c-5.08 6.482-9.325 13.958-12.484 22.02C3.74 54.28 1.927 61.603 1.098 68.941-6 127.785 20.89 181.564 93.866 254.541c100.875 100.868 182.167 93.248 185.674 92.876 7.638-.913 14.958-2.738 22.397-5.627 7.992-3.122 15.463-7.361 21.941-12.43l.331.294 15.348-15.029c11.074-11.098 11.393-28.83.716-39.542z"/></symbol><symbol viewBox="0 0 511.996 511.996" id="car-engine" xmlns="http://www.w3.org/2000/svg"><path d="M501.085 137.464L411.44 47.819c-13.045-13.047-33.294-14.569-48.145-3.619l-48.426 35.706a7.499 7.499 0 0 0-.852 11.337l11.67 11.67-51.269 51.269h-36.843l-51.272-51.272 11.672-11.673a7.5 7.5 0 0 0-.853-11.337l-48.424-35.698c-14.845-10.953-35.093-9.431-48.144 3.621L86.359 62.019a7.499 7.499 0 0 0 10.604 10.604l14.196-14.196c7.765-7.765 19.807-8.672 28.639-2.156l16.112 11.878L31.236 192.822l-11.878-16.107c-6.511-8.843-5.605-20.893 2.154-28.652l54.246-54.245a7.499 7.499 0 0 0-10.604-10.604l-54.246 54.245C-2.133 150.5-3.658 170.749 7.286 185.61l35.711 48.427a7.499 7.499 0 0 0 11.337.852l11.671-11.672 8.707 8.707c-18.396 15.837-29.159 38.954-29.159 63.437 0 40.203 28.693 74.534 67.62 82.138 4.233 22.432 20.21 40.76 41.285 48.32v26.933c0 12.317 10.016 22.337 22.328 22.337 9.687 0 17.951-6.2 21.039-14.839h10.735c3.087 8.639 11.346 14.839 21.029 14.839 9.687 0 17.951-6.2 21.039-14.839h10.738c3.087 8.637 11.349 14.836 21.034 14.836s17.946-6.199 21.033-14.836h10.739c3.087 8.637 11.349 14.836 21.033 14.836 12.314 0 22.332-10.018 22.332-22.332v-58.948c11.76-1.624 22.33-7.006 30.462-14.897a83.286 83.286 0 0 0 41.83-14.374 7.498 7.498 0 0 0 1.963-10.421 7.497 7.497 0 0 0-10.42-1.963 68.364 68.364 0 0 1-21.477 9.743 54.111 54.111 0 0 0 4.487-17.417 53.553 53.553 0 0 0 32.042-49.115c0-16.646-7.645-32.054-20.444-42.136l10.664-10.664c15.631 13.012 24.8 32.325 24.8 52.798 0 13.402-3.879 26.395-11.217 37.575a7.499 7.499 0 0 0 12.537 8.229c8.947-13.631 13.676-29.47 13.676-45.803 0-24.488-10.764-47.603-29.161-63.432l8.712-8.712 11.671 11.671a7.499 7.499 0 0 0 11.336-.852l35.706-48.425c10.95-14.853 9.428-35.101-3.619-48.147zm-120.89 69.254c0-1.882.733-3.652 2.064-4.983l21.126-21.126 9.965 9.965-21.126 21.126a7 7 0 0 1-4.982 2.064 7.001 7.001 0 0 1-4.983-2.064 6.997 6.997 0 0 1-2.064-4.982zm-18.562-67.86l6.662 6.662-21.126 21.126a7 7 0 0 1-4.983 2.064 7.003 7.003 0 0 1-4.983-2.064c-2.747-2.747-2.747-7.218 0-9.965l21.126-21.126zm-25.341-25.341l11.434 11.434-21.126 21.126c-8.594 8.594-8.594 22.578 0 31.172a21.9 21.9 0 0 0 15.586 6.456 21.897 21.897 0 0 0 15.586-6.456l21.126-21.126 13.883 13.883-21.126 21.126a21.9 21.9 0 0 0-6.456 15.586c0 5.887 2.293 11.423 6.456 15.586s9.698 6.456 15.586 6.456 11.423-2.293 15.586-6.456l21.126-21.126 11.434 11.434-48.163 48.164-99.096-99.095zm-31.561 280.821h8.142v50.916h-8.142zm-51.469-14.996l42.266-41.493c-.022.64-.049 1.28-.049 1.925 0 15.566 6.563 29.619 17.054 39.568zm-54.139 45.865a63.58 63.58 0 0 0 8.139-3.853v23.9h-8.139zm52.804-30.869h8.141v50.916h-8.141zm-12.303-22.622c.191-2.007.298-4.038.298-6.094 0-35.254-28.682-63.936-63.936-63.936-1.381 0-2.748.059-4.108.146l41.803-40.877c1.564 21.986 19.939 39.4 42.316 39.4 23.4 0 42.437-19.037 42.437-42.437 0-1.002-.047-1.992-.116-2.976l43.006 30.977c-11.548 1.862-21.897 7.353-29.825 15.273l.009-.046zM106.717 263.93l11.477 11.477 14.058 43.64a64.375 64.375 0 0 0-11.305 14.093c-17.376-3.858-30.387-19.601-30.387-37.778.001-12.592 6.077-24.208 16.157-31.432zm149.28-33.453c15.131 0 27.441 12.31 27.441 27.441s-12.31 27.441-27.441 27.441-27.441-12.31-27.441-27.441 12.31-27.441 27.441-27.441zm117.171 59.898s-90.646-65.586-91.702-66.381a42.218 42.218 0 0 0-25.469-8.513c-11.042 0-21.11 4.243-28.667 11.179l-82.96 81.096-11.055-34.317 104.261-104.261h36.843l104.26 104.26-5.46 16.959-.051-.022zM108.61 180.61l21.126 21.126a7 7 0 0 1 2.064 4.982 6.997 6.997 0 0 1-2.064 4.982 7 7 0 0 1-4.983 2.064 7 7 0 0 1-4.982-2.064l-21.126-21.126zm-58.717 37.512l-9.656-13.094 127.88-127.88 13.091 9.65zm38.149-16.943l21.125 21.125c4.163 4.163 9.698 6.456 15.586 6.456s11.423-2.293 15.586-6.456 6.456-9.699 6.456-15.586-2.293-11.423-6.456-15.586l-21.126-21.126.174-.174 13.709-13.709 21.126 21.126c4.163 4.163 9.698 6.456 15.586 6.456s11.423-2.293 15.586-6.456c8.594-8.594 8.594-22.578 0-31.172l-21.126-21.126 11.434-11.434 48.164 48.164-99.096 99.095-48.162-48.162zm65.623-65.624l21.126 21.126c2.747 2.747 2.747 7.218 0 9.965-1.331 1.331-3.101 2.064-4.983 2.064s-3.652-.733-4.983-2.064L143.7 145.52zM60.549 295.361c0-20.468 9.168-39.783 24.797-52.803l10.666 10.666c-12.801 10.083-20.448 25.491-20.448 42.137 0 13.459 5.023 26.342 14.144 36.276 6.844 7.454 15.535 12.756 25.095 15.43a63.531 63.531 0 0 0-2.639 14.845c-29.955-7.682-51.615-34.9-51.615-66.551zm66.497 70.261c0-26.985 21.955-48.94 48.94-48.94s48.94 21.954 48.94 48.94-21.955 48.94-48.94 48.94-48.94-21.954-48.94-48.94zm49.74 94.471c-4.042 0-7.332-3.293-7.332-7.341v-23.525c2.148.219 4.326.331 6.531.331 2.76 0 5.473-.195 8.142-.536v23.73c0 4.048-3.293 7.341-7.341 7.341zm52.803 0c-4.042 0-7.331-3.293-7.331-7.341v-42.973l14.673-14.405v57.377c0 4.049-3.293 7.342-7.342 7.342zm52.811-.003c-4.045 0-7.336-3.291-7.336-7.336v-58.416h14.671v58.416c0 4.045-3.29 7.336-7.335 7.336zm52.805 0c-4.045 0-7.335-3.291-7.335-7.336v-58.416h14.671v58.416c0 4.045-3.291 7.336-7.336 7.336zm14.834-80.752c-21.815 0-39.564-17.748-39.564-39.564 0-21.815 17.748-39.564 39.564-39.564 21.815 0 39.564 17.748 39.564 39.564s-17.749 39.564-39.564 39.564zm71.389-83.976a38.593 38.593 0 0 1-18.097 32.754c-2.508-11.473-8.633-21.605-17.121-29.138l7.588-23.569 11.477-11.477c10.078 7.221 16.153 18.837 16.153 31.43zm40.673-77.243L330.785 86.803l13.093-9.654 127.877 127.877zm30.533-41.41l-11.879 16.11L356.084 68.148l16.11-11.879c8.836-6.515 20.881-5.609 28.642 2.153l89.645 89.645c7.762 7.762 8.667 19.808 2.153 28.642z"/><path d="M198.617 365.622c0-12.479-10.152-22.631-22.631-22.631s-22.631 10.152-22.631 22.631 10.152 22.631 22.631 22.631 22.631-10.152 22.631-22.631zm-30.266 0c0-4.21 3.425-7.635 7.635-7.635s7.635 3.425 7.635 7.635-3.425 7.635-7.635 7.635-7.635-3.425-7.635-7.635zm181.688-48.479c-12.479 0-22.631 10.152-22.631 22.631s10.152 22.631 22.631 22.631 22.631-10.152 22.631-22.631-10.152-22.631-22.631-22.631zm0 30.266c-4.21 0-7.635-3.425-7.635-7.635s3.425-7.635 7.635-7.635 7.635 3.425 7.635 7.635-3.425 7.635-7.635 7.635z"/></symbol><symbol viewBox="0 0 612 612" id="delivery-truck" xmlns="http://www.w3.org/2000/svg"><path d="M21.474 377.522V117.138c0-14.469 11.729-26.199 26.199-26.199h260.25c14.469 0 26.198 11.73 26.198 26.199v260.385a8.732 8.732 0 0 1-8.733 8.733H30.207a8.733 8.733 0 0 1-8.733-8.734zm210.16 89.202c0 30.01-24.329 54.338-54.338 54.338s-54.338-24.328-54.338-54.338c0-30.011 24.329-54.338 54.338-54.338s54.338 24.327 54.338 54.338zm-27.17 0c0-15.005-12.164-27.169-27.169-27.169s-27.17 12.164-27.17 27.169 12.165 27.17 27.17 27.17 27.169-12.165 27.169-27.17zm-73.969-54.339H8.733A8.733 8.733 0 0 0 0 421.118v26.495a8.733 8.733 0 0 0 8.733 8.733h97.598c2.548-17.484 11.373-32.928 24.164-43.961zm385.443 54.339c0 30.01-24.329 54.338-54.338 54.338-30.01 0-54.338-24.328-54.338-54.338 0-30.011 24.328-54.338 54.338-54.338 30.009-.001 54.338 24.327 54.338 54.338zm-27.168 0c0-15.005-12.165-27.169-27.17-27.169-15.006 0-27.169 12.164-27.169 27.169s12.164 27.17 27.169 27.17 27.17-12.165 27.17-27.17zM612 421.118v26.495a8.733 8.733 0 0 1-8.733 8.733h-70.704c-5.057-34.683-34.906-61.427-70.961-61.427-36.062 0-65.912 26.745-70.969 61.427H248.261c-2.549-17.483-11.373-32.928-24.164-43.961h134.994V162.594c0-9.646 7.82-17.466 17.466-17.466h82.445a69.86 69.86 0 0 1 57.9 30.77l53.15 78.721a69.865 69.865 0 0 1 11.962 39.094v118.672h21.253a8.733 8.733 0 0 1 8.733 8.733zm-88.592-164.483l-42.501-60.393a8.734 8.734 0 0 0-7.142-3.707H407.47a8.734 8.734 0 0 0-8.733 8.733v60.393a8.732 8.732 0 0 0 8.733 8.733h108.798c7.074 0 11.212-7.973 7.14-13.759z"/></symbol><symbol viewBox="0 0 512.853 512.853" id="dump-truck" xmlns="http://www.w3.org/2000/svg"><path d="M505.173 214.613l-74.24-81.92c-5.973-5.973-13.653-9.387-21.333-9.387h-78.507c-13.653 0-23.893 11.093-23.893 23.893v181.76h-41.326l31.695-221.867h77.897c5.12 0 8.533-3.413 8.533-8.533s-3.413-8.533-8.533-8.533h-81.493l-40.533-48.64c-.853-.853-3.413-2.56-5.12-2.56l-59.733-8.533c-2.56 0-5.12.853-6.827 2.56L157.013 57.6l-22.187 14.507-47.787-7.68c-4.267-.853-8.533 1.707-9.387 5.12l-23.68 63.147H42.667c-3.413 0-6.827 1.707-8.533 5.12L0 223.147v5.12L25.6 339.2v71.68c0 11.093 9.387 20.48 20.48 20.48h5.723c4.075 29.155 28.753 51.2 59.131 51.2s55.056-22.045 59.131-51.2H350.47c4.075 29.155 28.753 51.2 59.131 51.2s55.056-22.045 59.131-51.2h22.789c11.093 0 20.48-9.387 21.333-20.48V234.24c-.001-7.68-2.561-14.507-7.681-19.627zm-10.24 19.627v26.453h-128V175.36h77.653l46.933 51.2c.64.427 1.173.96 1.613 1.56.22.3.417.617.592.945.876 1.642 1.209 3.575 1.209 5.175zM90.453 82.347l44.373 7.68c2.56 0 4.267 0 6.827-2.56l25.6-17.067c.853 0 1.707-.853 1.707-.853l22.187-22.187 52.053 7.68 29.013 34.987h-33.28c-.426 0-.851.027-1.272.08l-.013.002a9.64 9.64 0 0 0-1.164.222c-.073.018-.145.04-.218.06-.249.07-.493.151-.733.241-2.126.765-4.005 2.259-5.133 4.515l-12.8 32.427c-1.707 3.413-4.267 5.12-7.68 5.12H71.68l18.773-50.347zM24.89 260.663c.234.015.468.03.71.03h128c5.12 0 8.533-3.413 8.533-8.533s-3.413-8.533-8.533-8.533h-128c-1.699 0-3.205.383-4.466 1.073l-4.067-17.286 3.817-9.387h90.05c5.12 0 8.533-3.413 8.533-8.533s-3.413-8.533-8.533-8.533H27.822l20.818-51.2h162.133c10.24 0 19.627-5.973 23.04-15.36l11.093-27.307h34.987L248.32 328.96H40.96l-16.07-68.297zm86.043 204.83c-23.893 0-42.667-18.773-42.667-42.667 0-23.893 18.773-42.667 42.667-42.667 23.893 0 42.667 18.773 42.667 42.667 0 23.894-18.773 42.667-42.667 42.667zm298.667 0c-23.893 0-42.667-18.773-42.667-42.667 0-23.893 18.773-42.667 42.667-42.667 23.893 0 42.667 18.773 42.667 42.667 0 23.894-18.774 42.667-42.667 42.667zm81.92-51.2h-22.789c-4.075-29.155-28.753-51.2-59.131-51.2-.138 0-.274.009-.412.01-.148-.001-.294-.01-.441-.01-29.867 0-54.613 22.187-58.88 51.2H170.064c-3.821-27.339-25.761-48.416-53.528-50.936-.203-.019-.409-.029-.613-.046-.699-.056-1.397-.114-2.103-.147-.957-.046-1.919-.072-2.887-.072s-1.93.026-2.887.072c-.706.033-1.404.09-2.103.147-.204.017-.41.027-.613.046-27.767 2.52-49.707 23.597-53.528 50.936H46.08c-1.707 0-3.413-1.707-3.413-3.413v-64.853h281.6V148.053c0-4.267 3.413-6.827 6.827-6.827H409.6c3.413 0 5.973.853 8.533 3.413l12.231 13.653h-65.991c-7.68 0-14.507 6.827-14.507 14.507v90.453c0 7.68 6.827 14.507 14.507 14.507h130.56v42.667h-42.667c-5.12 0-8.533 3.413-8.533 8.533s3.413 8.533 8.533 8.533h42.667v73.387c0 1.708-1.706 3.414-3.413 3.414z"/><path d="M110.933 405.76c-9.387 0-17.067 7.68-17.067 17.067s7.68 17.067 17.067 17.067S128 432.213 128 422.827s-7.68-17.067-17.067-17.067zm298.667 0c-9.387 0-17.067 7.68-17.067 17.067s7.68 17.067 17.067 17.067 17.067-7.68 17.067-17.067-7.68-17.067-17.067-17.067z"/></symbol><symbol viewBox="0 0 31.012 31.012" id="mail" xmlns="http://www.w3.org/2000/svg"><path d="M25.109 21.51a.495.495 0 0 1-.342-.136l-5.754-5.398a.5.5 0 1 1 .685-.728l5.754 5.398a.5.5 0 0 1-.343.864zm-19.207 0a.5.5 0 0 1-.343-.864l5.756-5.398a.5.5 0 0 1 .685.728l-5.756 5.398a.495.495 0 0 1-.342.136z"/><path d="M28.512 26.529H2.5a2.503 2.503 0 0 1-2.5-2.5V6.982c0-1.379 1.122-2.5 2.5-2.5h26.012c1.378 0 2.5 1.121 2.5 2.5v17.047c0 1.379-1.122 2.5-2.5 2.5zM2.5 5.482c-.827 0-1.5.673-1.5 1.5v17.047c0 .827.673 1.5 1.5 1.5h26.012c.827 0 1.5-.673 1.5-1.5V6.982c0-.827-.673-1.5-1.5-1.5H2.5z"/><path d="M15.506 18.018c-.665 0-1.33-.221-1.836-.662L.83 6.155a.501.501 0 0 1-.049-.706.503.503 0 0 1 .706-.048l12.84 11.2c.639.557 1.719.557 2.357 0L29.508 5.419a.5.5 0 0 1 .658.754L17.342 17.355c-.507.442-1.171.663-1.836.663z"/></symbol><symbol viewBox="0 0 55.017 55.017" id="map-location" xmlns="http://www.w3.org/2000/svg"><path d="M51.688 23.013H40.789a1 1 0 1 0 0 2h9.102l2.899 27H2.268l3.403-27h9.118a1 1 0 1 0 0-2H3.907L0 54.013h55.017l-3.329-31z"/><path d="M26.654 38.968c-.147.087-.304.164-.445.255-.22.142-.435.291-.646.445a1.001 1.001 0 0 0 1.184 1.613 10.836 10.836 0 0 1 1.562-.96.993.993 0 0 0 .462-1.269c.008-.008.018-.014.025-.022 1.809-1.916 7.905-9.096 10.429-21.058.512-2.426.627-4.754.342-6.919-.86-6.575-4.945-10.051-11.813-10.051-6.866 0-10.951 3.476-11.813 10.051-.284 2.166-.169 4.494.343 6.919 2.499 11.846 8.499 18.998 10.37 20.996zm-8.73-27.654c.733-5.592 3.949-8.311 9.831-8.311 5.883 0 9.098 2.719 9.83 8.311.255 1.94.148 4.043-.316 6.247C35 28.314 29.59 35.137 27.755 37.207c-1.837-2.072-7.246-8.898-9.514-19.646-.465-2.204-.571-4.306-.317-6.247z"/><path d="M27.755 19.925c4.051 0 7.346-3.295 7.346-7.346s-3.295-7.346-7.346-7.346-7.346 3.295-7.346 7.346 3.295 7.346 7.346 7.346zm0-12.691c2.947 0 5.346 2.398 5.346 5.346s-2.398 5.346-5.346 5.346-5.346-2.398-5.346-5.346 2.399-5.346 5.346-5.346zm3.673 29.936a1 1 0 1 0 .418 1.956 23.245 23.245 0 0 1 1.886-.313.998.998 0 0 0 .869-1.115.99.99 0 0 0-1.115-.869c-.723.089-1.416.204-2.058.341zm5.171.406a1 1 0 0 0 .998.957l.044-.001 2.001-.083a1 1 0 0 0 .953-1.044c-.025-.553-.539-.984-1.044-.954l-1.996.083a.998.998 0 0 0-.956 1.042zm-14.166 4.601c-.514.388-1.045.761-1.58 1.107a1 1 0 0 0 1.09 1.678 29.36 29.36 0 0 0 1.695-1.188c.44-.333.528-.96.196-1.401a1.003 1.003 0 0 0-1.401-.196zm22.287-6.594c-.338.237-.777.409-1.346.526a1 1 0 1 0 .405 1.959c.842-.174 1.526-.452 2.096-.853l.134-.098a1 1 0 0 0-1.207-1.595l-.082.061zM8.86 43.402a.999.999 0 0 0-.704-1.226.996.996 0 0 0-1.226.704 6.688 6.688 0 0 0-.233 1.758c.001.196.01.392.029.587a1 1 0 0 0 1.991-.204 3.996 3.996 0 0 1-.013-.638c.016-.324.068-.655.156-.981zM44.698 27.81a5.88 5.88 0 0 0-2.386.181 1 1 0 1 0 .543 1.924 3.903 3.903 0 0 1 1.575-.122 1 1 0 1 0 .268-1.983zm1.99 4.954a1 1 0 0 0 1.91.59c.099-.318.16-.641.183-.963a3.991 3.991 0 0 0-.247-1.642 1.001 1.001 0 0 0-1.875.695c.086.232.13.467.13.696l-.003.117a2.255 2.255 0 0 1-.098.507zm-29.207 12.4c-.586.275-1.183.53-1.774.759a1 1 0 1 0 .721 1.866 29.865 29.865 0 0 0 1.903-.813 1 1 0 0 0 .48-1.33.997.997 0 0 0-1.33-.482zm-7.28-4.163a1 1 0 0 0 .478-.122c.288-.157.595-.255.911-.289.135-.016.273-.016.406.002a.99.99 0 0 0 1.122-.86 1 1 0 0 0-.86-1.122 3.693 3.693 0 0 0-.891-.008 4.445 4.445 0 0 0-1.646.521.999.999 0 0 0 .48 1.878zm-.208 7.841c.216.056.436.098.654.124.256.031.512.047.769.047.313 0 .627-.022.94-.062a.999.999 0 1 0-.25-1.984 4.9 4.9 0 0 1-1.216.015 3.335 3.335 0 0 1-.394-.075.997.997 0 0 0-1.22.716 1.001 1.001 0 0 0 .717 1.219z"/></symbol><symbol viewBox="0 0 489.183 489.183" id="medal" xmlns="http://www.w3.org/2000/svg"><path d="M425.054 220.813l-23.9-32.7c-1.5-2.1-1.6-5-.1-7.1l23.4-33c2.1-3 1.1-7.2-2.1-8.9l-35.7-19.1c-2.3-1.2-3.6-3.8-3.1-6.4l6.7-39.9c.6-3.6-2.1-7-5.8-7.1l-40.4-1.7c-2.6-.1-4.9-1.9-5.6-4.4l-11.2-39c-1-3.5-4.9-5.4-8.3-3.9l-37.2 16c-2.4 1-5.2.4-7-1.5l-27-30.1c-2.5-2.7-6.7-2.7-9.2.1l-26.6 30.5c-1.7 2-4.5 2.6-6.9 1.6l-37.4-15.4c-3.4-1.4-7.2.5-8.2 4l-10.7 39c-.7 2.5-2.9 4.3-5.5 4.5l-40.4 2.3c-3.7.2-6.3 3.6-5.7 7.2l7.3 39.8c.5 2.6-.8 5.2-3 6.4l-35.4 19.6c-3.2 1.8-4.1 6-2 8.9l23.9 32.7c1.5 2.1 1.6 5 .1 7.1l-23.4 33c-2.1 3-1.1 7.2 2.1 8.9l35.7 19.1c2.3 1.2 3.6 3.8 3.1 6.4l-6.7 39.9c-.6 3.6 2.1 7 5.8 7.1l40.4 1.7c2.6.1 4.9 1.9 5.6 4.4l11.3 38.9c1 3.5 4.9 5.4 8.3 3.9l37.2-16c2.4-1 5.2-.4 7 1.5l27 30.1c2.5 2.7 6.7 2.7 9.2-.1l26.6-30.5c1.7-2 4.5-2.6 6.9-1.6l37.4 15.4c3.4 1.4 7.2-.5 8.2-4l10.7-39c.7-2.5 2.9-4.3 5.5-4.5l40.4-2.3c3.7-.2 6.3-3.6 5.7-7.2l-7.3-39.8c-.5-2.6.8-5.2 3-6.4l35.4-19.6c3.2-1.6 4.1-5.8 1.9-8.8zm-180.4 74.7c-60.5 0-109.8-49.3-109.8-109.8s49.3-109.8 109.8-109.8 109.8 49.3 109.8 109.8c0 60.6-49.3 109.8-109.8 109.8zm98.9 71c-5.8 5.9-13.9 9.4-22.6 9.4-3.1 0-6.2-.5-9.1-1.3l-25.8-7.8-19.9 18.2c-.7.6-1.3 1.2-2 1.7l32 99.2c1.1 3.5 5.6 4.3 7.9 1.4l23.3-29.9c1.1-1.5 3.1-2.1 4.8-1.6l36.3 10.6c3.5 1 6.7-2.3 5.6-5.7l-30.5-94.2zm-140.2.3l-25.8 7.8c-3 .9-6 1.3-9.1 1.3-8.7 0-16.7-3.5-22.6-9.4l-30.5 94.3c-1.1 3.5 2.1 6.7 5.6 5.7l36.3-10.6c1.8-.5 3.7.1 4.8 1.6l23.3 29.9c2.2 2.9 6.8 2.1 7.9-1.4l32-99.2c-.7-.5-1.4-1.1-2-1.7l-19.9-18.3z"/><path d="M309.754 158.413l-41.4-3-15.6-38.4c-2.9-7.2-13.2-7.2-16.1 0l-15.6 38.4-41.4 3c-7.8.6-10.9 10.3-5 15.3l31.7 26.8-9.9 40.3c-1.9 7.6 6.4 13.6 13 9.5l35.2-21.9 35.2 21.9c6.6 4.1 14.9-1.9 13-9.5l-9.9-40.3 31.7-26.8c6-5 2.9-14.7-4.9-15.3z"/></symbol><symbol viewBox="0 0 480 480" id="piggy-bank" xmlns="http://www.w3.org/2000/svg"><path d="M155.2 241.7c66.7 0 120.8-54.1 120.8-120.8S221.9 0 155.2 0 34.4 54.1 34.4 120.8s54.1 120.9 120.8 120.9zM113 168.6c1.1-4 2.2-7.9 3.4-11.9 1.4-4.6 2.7-5.1 6.9-2.9 7.2 3.7 14.8 5.8 22.8 6.8 5.1.6 10.2.1 14.9-2 8.9-3.9 10.3-14.2 2.8-20.4-2.6-2.1-5.5-3.7-8.5-5-7.8-3.4-15.9-6-23.3-10.4-11.9-7.1-19.5-17-18.6-31.5 1-16.4 10.3-26.7 25.3-32.1 6.2-2.3 6.2-2.2 6.3-8.7v-6.6c.1-4.9 1-5.7 5.8-5.9h4.5c10.4 0 10.4 0 10.4 10.4 0 7.3 0 7.4 7.3 8.5 5.6.9 10.9 2.5 16.1 4.8C192 63 193 65 192.2 68c-1.3 4.5-2.5 9-4 13.4-1.4 4.2-2.7 4.8-6.7 2.9-8.1-3.9-16.6-5.6-25.6-5.1-2.4.1-4.6.4-6.8 1.4-7.7 3.4-9 11.9-2.4 17.2 3.3 2.7 7.1 4.6 11.1 6.2 6.8 2.8 13.7 5.6 20.3 9.2 20.7 11.5 26.3 37.5 11.7 55.2-5.3 6.4-12.1 10.7-20.2 12.9-3.5 1-5.1 2.8-4.9 6.4.2 3.6 0 7.1 0 10.7 0 3.2-1.6 4.9-4.8 5-3.8.1-7.7.1-11.5 0-3.4-.1-5-2-5-5.3 0-2.6 0-5.2-.1-7.8-.1-5.7-.2-6-5.8-6.9-7.1-1.1-14-2.7-20.5-5.9-4.9-2.3-5.4-3.6-4-8.9z"/><path d="M426.2 251.8h-14.1c-9.3-28.5-27.5-53.8-51.8-73.4 0-.9-.2-1.9-.4-2.8-5.1-17.9 1.2-34.2 8.5-45.9 5.1-8.2-1.5-18.7-11.1-17.5-21.5 2.7-36.3 10.6-46.5 19.5-7 6.1-12 14.3-14.2 23.4-15.4 63.8-72.9 111.3-141.4 111.3-33.3 0-63.9-11.2-88.4-30-8.5 18.4-13.1 38.5-13.1 59.6 0 11.4 1.4 22.5 4 33.2 0 0 0 .2.1.5 2.7 11.1 6.8 21.8 12 31.9 6.9 14.9 16.9 32.3 30.7 46.4 19.9 20.5 23.3 45.9 23.8 56.9v5.4c.4 5.4 4.9 9.7 10.4 9.7h63.2c5.7 0 10.4-4.6 10.4-10.4V454c9.2 1.2 18.6 1.9 28.1 1.9 7.5 0 14.8-.4 22.1-1.2v14.9c0 5.7 4.6 10.4 10.4 10.4h63.4c5.7 0 10.4-4.6 10.4-10.4V454c.1-5.2 1.9-25.9 21.5-43.6l2.1-1.8c.2-.2.4-.3.6-.5 21.8-19.4 37.9-43.6 46.2-70.6h13.3c10.6 0 19.2-8.6 19.2-19.2V271c-.2-10.6-8.8-19.2-19.4-19.2zm-79.1 3.4c-8.7 0-15.7-7-15.7-15.7s7-15.7 15.7-15.7 15.7 7 15.7 15.7-7 15.7-15.7 15.7z"/></symbol><symbol viewBox="0 0 512 512" id="support" xmlns="http://www.w3.org/2000/svg"><path d="M366 396c-5.52 0-10 4.48-10 10s4.48 10 10 10 10-4.48 10-10-4.48-10-10-10z"/><path d="M390.622 363.663l-47.53-15.84-17.063-34.127c15.372-15.646 26.045-36.348 29.644-57.941L357.801 243H376c16.542 0 30-13.458 30-30v-63C406 67.29 338.71 0 256 0c-82.922 0-150 67.097-150 150v63c0 13.036 8.361 24.152 20 28.28V253c0 16.542 13.458 30 30 30h8.782a108.487 108.487 0 0 0 16.774 25.974 103.947 103.947 0 0 0 4.406 4.741l-17.054 34.108-47.531 15.841C66.112 382.092 26 440.271 26 502c0 5.523 4.477 10 10 10h440c5.522 0 10-4.477 10-10 0-61.729-40.111-119.908-95.378-138.337zM386 213c0 5.514-4.486 10-10 10h-15.262c2.542-19.69 4.236-40.643 4.917-61.28.02-.582.036-1.148.054-1.72H386v53zm-250 10c-5.514 0-10-4.486-10-10v-53h20.298c.033 1.043.068 2.091.107 3.146l.004.107v.009c.7 20.072 2.372 40.481 4.856 59.737H136V223zm20 40c-5.514 0-10-4.486-10-10v-10h8.198l2.128 12.759a105.57 105.57 0 0 0 1.482 7.241H156zm-9.983-123H126.38C131.445 72.979 187.377 20 256 20c68.318 0 124.496 52.972 129.619 120h-19.635c-.72-55.227-45.693-100-101.033-100h-17.9c-55.339 0-100.315 44.773-101.034 100zM247.05 60h17.9c44.809 0 81.076 36.651 81.05 81.41 0 3.147-.025 5.887-.078 8.38l-.001.098-12.508-1.787c-33.98-4.852-66.064-20.894-90.342-45.172A10.003 10.003 0 0 0 236 100c-26.856 0-52.564 12.236-69.558 32.908C170.63 92.189 205.053 60 247.05 60zm-68.51 203c-5.006-16.653-10.734-65.653-12-97.053l13.459-17.946c12.361-16.476 31.592-26.713 52.049-27.888 26.917 25.616 61.739 42.532 98.537 47.786l14.722 2.104c-.984 20.885-2.995 41.843-5.876 61.118l-.003.02c-.916 6.197-1.638 10.185-3.482 21.324-5.296 31.765-28.998 60.49-60.287 68.313a81.338 81.338 0 0 1-39.313 0c-19.537-4.884-37.451-18.402-49.012-37.778h20.386c4.128 11.639 15.243 20 28.28 20h20c16.575 0 30-13.424 30-30 0-16.542-13.458-30-30-30h-20c-13.327 0-24.278 8.608-28.297 20H178.54zm56.619 78.016A101.171 101.171 0 0 0 256 343.2c5.471 0 10.943-.458 16.353-1.346l-17.67 18.687-19.524-19.525zm5.776 34.063l-31.718 33.542a381.013 381.013 0 0 1-22.389-51.917l11.911-23.822 42.196 42.197zm70.631-45.585l13.604 27.209a380.908 380.908 0 0 1-22.392 51.933l-33.948-33.948 42.736-45.194zM226 273c0-5.521 4.478-10 10-10h20c5.514 0 10 4.486 10 10 0 5.522-4.479 10-10 10h-20c-5.514 0-10-4.486-10-10zM46.4 492c3.963-49.539 36.932-94.567 81.302-109.363l42.094-14.028a400.869 400.869 0 0 0 28.463 61.74l.056.101.001.002a400.974 400.974 0 0 0 27.372 41.799L237.99 492H46.4zm209.6-8.914l-13.562-21.773a10.133 10.133 0 0 0-.486-.711 381.284 381.284 0 0 1-22.532-33.662l35.663-37.714 37.578 37.578A380.863 380.863 0 0 1 270.05 460.6c-.49.653.205-.376-14.05 22.486zM274.01 492l12.301-19.748a400.826 400.826 0 0 0 27.564-42.132c.05-.088.097-.178.147-.266l.018-.032a400.543 400.543 0 0 0 28.164-61.213l42.093 14.028c44.371 14.796 77.34 59.824 81.303 109.363H274.01z"/><path d="M435.546 451.531c-6.683-13.377-16.472-25.261-28.309-34.367-4.378-3.369-10.656-2.55-14.023 1.828-3.368 4.378-2.549 10.656 1.828 14.024 9.454 7.273 17.272 16.766 22.611 27.453 2.473 4.949 8.483 6.941 13.415 4.477 4.94-2.468 6.945-8.474 4.478-13.415z"/></symbol><symbol viewBox="0 0 97.16 97.16" id="time" xmlns="http://www.w3.org/2000/svg"><path d="M48.58 0C21.793 0 0 21.793 0 48.58s21.793 48.58 48.58 48.58 48.58-21.793 48.58-48.58S75.367 0 48.58 0zm0 86.823c-21.087 0-38.244-17.155-38.244-38.243S27.493 10.337 48.58 10.337 86.824 27.492 86.824 48.58 69.667 86.823 48.58 86.823z"/><path d="M73.898 47.08H52.066V20.83a4 4 0 0 0-8 0v30.25a4 4 0 0 0 4 4h25.832a4 4 0 0 0 0-8z"/></symbol><symbol viewBox="0 0 512 512" id="truck" xmlns="http://www.w3.org/2000/svg"><path d="M112 356a8 8 0 0 0-8 8c0 4.411-3.589 8-8 8s-8-3.589-8-8 3.589-8 8-8a8 8 0 0 0 0-16c-13.234 0-24 10.767-24 24s10.766 24 24 24 24-10.767 24-24a8 8 0 0 0-8-8zm320 0a8 8 0 0 0-8 8c0 4.411-3.589 8-8 8s-8-3.589-8-8 3.589-8 8-8a8 8 0 0 0 0-16c-13.234 0-24 10.767-24 24s10.766 24 24 24 24-10.767 24-24a8 8 0 0 0-8-8z"/><path d="M512 252a7.973 7.973 0 0 0-2.388-5.698c-3.421-9.455-10.352-17.394-19.723-22.08a7.901 7.901 0 0 0-.767-.334l-26.439-9.925-16.106-61.195a6.038 6.038 0 0 0-.074-.263C441.389 135.456 425.992 124 408.191 124H352v-16c0-8.822-7.178-16-16-16H16c-8.822 0-16 7.178-16 16v224c0 8.822 7.178 16 16 16h26.341a55.523 55.523 0 0 0-1.761 8H8a8 8 0 0 0 0 16h32.581c3.895 27.102 27.258 48 55.419 48s51.525-20.898 55.419-48H168c0 13.233 10.766 24 24 24h48c13.234 0 24-10.767 24-24h96.581c3.895 27.102 27.258 48 55.419 48s51.525-20.898 55.419-48H504a8 8 0 0 0 0-16h-32.581a55.523 55.523 0 0 0-1.761-8H496c8.822 0 16-7.178 16-16v-72c0-1.88-.131-3.735-.383-5.558A7.98 7.98 0 0 0 512 252zm-16 48h-8v-8h8v8zm-6.101-56H352v-16h102.549l28.531 10.71a24.07 24.07 0 0 1 6.819 5.29zm-81.708-104c10.638 0 19.846 6.819 22.951 16.982L445.622 212H352v-72h56.191zM48.001 332H16v-40h248.004a8 8 0 0 0 0-16H16V108h320v224H144.002c-.661 0-1.3.089-1.915.24C131.975 317.61 115.092 308 96 308c-19.092 0-35.974 9.61-46.087 24.24a7.986 7.986 0 0 0-1.912-.24zM96 404c-22.056 0-40-17.944-40-40s17.944-40 40-40 40 17.944 40 40-17.944 40-40 40zm55.419-48a55.523 55.523 0 0 0-1.761-8h19.718a23.89 23.89 0 0 0-1.376 8h-16.581zM248 372c0 4.411-3.589 8-8 8h-48c-4.411 0-8-3.589-8-8v-7.981l.001-.019-.001-.019V356c0-4.411 3.589-8 8-8h48c4.411 0 8 3.589 8 8v16zm14.624-24h99.717a55.523 55.523 0 0 0-1.761 8H264a23.89 23.89 0 0 0-1.376-8zM416 404c-22.056 0-40-17.944-40-40s17.944-40 40-40 40 17.944 40 40-17.944 40-40 40zm48-72c-.66 0-1.299.089-1.913.24C451.974 317.61 435.092 308 416 308s-35.974 9.61-46.087 24.24a7.986 7.986 0 0 0-1.912-.24h-16v-72h144v16h-8c-8.822 0-16 7.178-16 16v8c0 8.822 7.178 16 16 16h8v16H464z"/><path d="M200 356c-2.11 0-4.17.859-5.66 2.34A8.068 8.068 0 0 0 192 364c0 2.109.85 4.17 2.34 5.66A8.055 8.055 0 0 0 200 372c2.11 0 4.17-.851 5.66-2.34A8.07 8.07 0 0 0 208 364c0-2.101-.85-4.17-2.34-5.66A8.089 8.089 0 0 0 200 356zm96.004-64H312a8 8 0 0 0 0-16h-15.996a8 8 0 0 0 0 16z"/></symbol></svg>