<svg xmlns="http://www.w3.org/2000/svg" viewBox="0 0 512 512"><path d="M367.64 398.93c-1.86-1.86-4.44-2.93-7.07-2.93s-5.21 1.07-7.07 2.93c-1.86 1.86-2.93 4.44-2.93 7.07s1.07 5.21 2.93 7.07c1.86 1.86 4.44 2.93 7.07 2.93s5.21-1.07 7.07-2.93 2.93-4.44 2.93-7.07-1.07-5.21-2.93-7.07zM64.012 0H10C4.477 0 0 4.477 0 10v54.012c0 5.523 4.477 10 10 10s10-4.477 10-10V20h44.012c5.523 0 10-4.477 10-10s-4.477-10-10-10zM502 0h-54.012c-5.523 0-10 4.477-10 10s4.477 10 10 10H492v44.012c0 5.523 4.477 10 10 10s10-4.477 10-10V10c0-5.523-4.477-10-10-10zm0 437.988c-5.523 0-10 4.477-10 10V492h-44.012c-5.523 0-10 4.477-10 10s4.477 10 10 10H502c5.523 0 10-4.477 10-10v-54.012c0-5.523-4.477-10-10-10zM64.012 492H20v-44.012c0-5.523-4.477-10-10-10s-10 4.477-10 10V502c0 5.523 4.477 10 10 10h54.012c5.523 0 10-4.477 10-10s-4.477-10-10-10z"/><path d="M502 222h-44V106c0-5.523-4.477-10-10-10h-48c-5.523 0-10 4.477-10 10v116h-19.431V106c0-5.523-4.477-10-10-10s-10 4.477-10 10v116h-20V106c0-5.523-4.477-10-10-10s-10 4.477-10 10v116H289.89V106c0-5.523-4.477-10-10-10h-38c-5.523 0-10 4.477-10 10v116h-20V106c0-5.523-4.477-10-10-10s-10 4.477-10 10v116H170V106c0-5.523-4.477-10-10-10h-48c-5.523 0-10 4.477-10 10v116H74v-82.333c0-5.523-4.477-10-10-10s-10 4.477-10 10V222H10c-5.523 0-10 4.477-10 10v48c0 5.523 4.477 10 10 10h44v116c0 5.523 4.477 10 10 10s10-4.477 10-10V290h28v116c0 5.523 4.477 10 10 10h48c5.523 0 10-4.477 10-10V290h21.89v116c0 5.523 4.477 10 10 10s10-4.477 10-10V290h20v116c0 5.523 4.477 10 10 10h38c5.523 0 10-4.477 10-10V290h20.679v116c0 5.523 4.477 10 10 10s10-4.477 10-10V290h20v80.5c0 5.523 4.477 10 10 10s10-4.477 10-10V290H390v116c0 5.523 4.477 10 10 10h48c5.523 0 10-4.477 10-10V290h44c5.523 0 10-4.477 10-10v-48c0-5.523-4.477-10-10-10zm-92-106h28v106h-28V116zm-158.11 0h18v106h-18V116zM122 116h28v106h-28V116zm28 280h-28V290h28v106zm119.89 0h-18V290h18v106zM438 396h-28V290h28v106zm54-126H20v-28h472v28zM71.07 98.93C69.21 97.07 66.63 96 64 96s-5.21 1.07-7.07 2.93S54 103.37 54 106s1.07 5.21 2.93 7.07S61.37 116 64 116s5.21-1.07 7.07-2.93S74 108.63 74 106s-1.07-5.21-2.93-7.07z"/></svg>